<svg width="213" height="26" viewBox="0 0 213 26" fill="none" xmlns="http://www.w3.org/2000/svg">
<path d="M175.765 0.188232H210.765C210.988 0.192523 211.208 0.240837 211.413 0.330322C211.618 0.419807 211.803 0.548678 211.958 0.709717C212.112 0.870756 212.234 1.06075 212.315 1.2688C212.397 1.47685 212.436 1.69878 212.432 1.92212V23.5964C212.436 23.8198 212.397 24.0417 212.315 24.2498C212.234 24.4578 212.112 24.6478 211.958 24.8088C211.803 24.9699 211.618 25.0987 211.413 25.1882C211.208 25.2777 210.988 25.326 210.765 25.3303H175.765C175.541 25.326 175.321 25.2777 175.116 25.1882C174.912 25.0987 174.727 24.9699 174.572 24.8088C174.417 24.6478 174.295 24.4578 174.214 24.2498C174.133 24.0417 174.093 23.8198 174.098 23.5964V1.92212C174.093 1.69878 174.133 1.47685 174.214 1.2688C174.295 1.06075 174.417 0.870756 174.572 0.709717C174.727 0.548678 174.912 0.419807 175.116 0.330322C175.321 0.240837 175.541 0.192523 175.765 0.188232Z" fill="url(#paint0_linear_8_527)"/>
<path d="M204.07 17.4143L203.818 16.1194H201.084L200.635 17.4143H198.393L201.6 9.34937C201.674 9.14937 201.811 8.97835 201.99 8.86157C202.168 8.7448 202.38 8.68848 202.593 8.70044H204.322L206.044 17.4153L204.07 17.4143ZM202.834 11.0701L201.704 14.3313H203.47L202.834 11.0701ZM195.547 11.1843C195.547 12.1363 198.547 12.3401 198.547 14.5291C198.547 16.6371 196.332 17.4124 194.865 17.4124C194.031 17.4261 193.204 17.2639 192.437 16.9363L192.757 15.0461C193.637 15.7661 196.306 15.9714 196.306 14.8284C196.306 13.6854 193.331 13.6582 193.331 11.4822C193.331 9.17018 195.865 8.69409 196.931 8.69409C197.591 8.71102 198.244 8.83515 198.865 9.06128L198.558 10.8704C197.64 10.3584 195.545 10.2362 195.545 11.1882L195.547 11.1843ZM188.963 17.4143L190.307 8.69897H192.458L191.114 17.4143H188.963ZM183.806 17.4143L181.94 9.85229C182.269 10.0582 182.584 10.2875 182.881 10.5383C183.778 11.3059 184.46 12.2928 184.862 13.4031L185.105 14.6941L187.156 8.70044H189.471L186.049 17.4153L183.806 17.4143ZM180.012 8.93823L179.912 8.90845L180.012 8.93823ZM179.792 8.87329L179.744 8.86011L179.792 8.87329ZM180.321 9.04321L180.193 8.99829L180.321 9.04321ZM181.812 9.76831C181.745 9.72698 181.678 9.68717 181.612 9.64917C181.676 9.69317 181.742 9.73119 181.81 9.77319L181.812 9.76831ZM181.298 9.47827C181.24 9.44827 181.18 9.41643 181.123 9.38843C181.178 9.42143 181.237 9.45315 181.296 9.48315L181.298 9.47827ZM180.763 9.22144L180.645 9.17017L180.763 9.22144Z" fill="#494CA3"/>
<path d="M184.859 13.4072L184.135 9.48925C184.097 9.2531 183.97 9.0404 183.78 8.89452C183.591 8.74864 183.353 8.6809 183.115 8.70458H179.725L179.685 8.85155C180.862 9.16894 181.952 9.74641 182.877 10.5415C183.774 11.3092 184.457 12.2965 184.859 13.4072Z" fill="#FFC000"/>
<path d="M117.712 0.349365H152.447C152.896 0.36142 153.321 0.550379 153.631 0.875244C153.941 1.20011 154.11 1.63439 154.101 2.08325V23.7561C154.11 24.205 153.941 24.6392 153.631 24.9641C153.321 25.289 152.896 25.4779 152.447 25.49H117.712C117.263 25.4779 116.837 25.289 116.527 24.9641C116.217 24.6392 116.049 24.205 116.058 23.7561V2.08423C116.048 1.63519 116.217 1.20081 116.527 0.875732C116.837 0.55065 117.263 0.36142 117.712 0.349365Z" fill="#F1F1F1"/>
<path d="M116.47 24.8992C116.204 24.5784 116.06 24.1745 116.061 23.7581V2.08423C116.052 1.63519 116.22 1.20081 116.53 0.875732C116.84 0.55065 117.266 0.36142 117.715 0.349365H152.449C152.871 0.350311 153.275 0.516826 153.575 0.813232L116.475 24.8992H116.47Z" fill="white" fill-opacity="0.73"/>
<path d="M130.706 18.3143L132.006 15.9642L131.282 10.3201H133.053L133.339 13.6605L135.072 10.3201H136.9L132.691 18.3143H130.706ZM125.153 14.0985C125.426 12.7245 126.753 12.2884 128.715 12.2884C128.832 11.6774 128.443 11.5242 127.781 11.5472C127.197 11.5755 126.623 11.7086 126.087 11.9403L126.242 10.5672C126.886 10.3671 127.553 10.2497 128.227 10.2181C129.453 10.1961 130.816 10.5875 130.505 12.1805L129.746 15.9305H127.975L128.091 15.3621C127.885 15.5743 127.639 15.7436 127.368 15.8597C127.096 15.9758 126.804 16.0365 126.509 16.0384C125.67 16.0344 124.923 15.4881 125.154 14.0941L125.153 14.0985ZM126.964 14.0111C126.908 14.09 126.876 14.1835 126.873 14.2801C126.869 14.3767 126.893 14.4724 126.943 14.5555C126.992 14.6385 127.064 14.7056 127.151 14.7484C127.238 14.7911 127.335 14.8075 127.431 14.7962C127.65 14.806 127.865 14.7363 128.037 14.5999C128.209 14.4636 128.325 14.2701 128.366 14.0545C128.389 13.886 128.422 13.719 128.466 13.5545H128.018C127.818 13.536 127.617 13.5677 127.433 13.6468C127.249 13.7259 127.088 13.8496 126.964 14.0072V14.0111ZM119.053 15.9305L120.517 8.75813H123.824C124.119 8.75552 124.41 8.82374 124.673 8.95686C124.936 9.08998 125.163 9.28418 125.336 9.52327C125.508 9.76235 125.621 10.0393 125.664 10.3309C125.707 10.6225 125.68 10.9201 125.585 11.199C125.49 11.8549 125.161 12.4543 124.659 12.887C124.157 13.3197 123.515 13.557 122.853 13.5545H121.47L120.995 15.9305H119.053ZM121.746 12.1805H122.656C122.922 12.1593 123.174 12.0518 123.374 11.8748C123.574 11.6979 123.711 11.4607 123.765 11.199C123.807 11.0914 123.822 10.9755 123.81 10.8607C123.797 10.7458 123.757 10.6355 123.693 10.5394C123.629 10.4432 123.543 10.3641 123.442 10.3084C123.34 10.2527 123.227 10.2218 123.112 10.2191H122.162L121.746 12.1805Z" fill="#3284AE"/>
<path d="M142.37 14.094C142.646 12.72 143.987 12.2854 145.976 12.2854C146.114 11.6734 145.72 11.5222 145.05 11.5442C144.454 11.5748 143.867 11.7075 143.316 11.9363L143.474 10.5632C144.134 10.3656 144.815 10.2486 145.503 10.2151C146.744 10.1931 148.103 10.584 147.788 12.176L147.02 15.925H145.247L145.365 15.3591C144.935 15.7883 144.354 16.0314 143.747 16.0354C142.889 16.0344 142.133 15.489 142.37 14.094ZM144.203 14.0071C144.149 14.0887 144.12 14.1842 144.118 14.282C144.117 14.3798 144.144 14.4755 144.196 14.5583C144.248 14.6412 144.323 14.7073 144.412 14.7488C144.5 14.7902 144.599 14.8054 144.696 14.7922C144.914 14.802 145.127 14.732 145.298 14.5959C145.468 14.4598 145.583 14.2666 145.622 14.052C145.661 13.877 145.681 13.724 145.722 13.552H145.289C145.084 13.5313 144.877 13.5621 144.687 13.6414C144.497 13.7206 144.329 13.8459 144.2 14.0061L144.203 14.0071ZM147.839 15.925L149.305 8.7312H151.125L149.64 15.925H147.839ZM136.27 15.925L137.732 8.75415H141.032C141.326 8.75336 141.616 8.82264 141.877 8.9563C142.139 9.08996 142.365 9.28415 142.537 9.52271C142.709 9.76126 142.821 10.0372 142.865 10.3279C142.909 10.6186 142.883 10.9156 142.789 11.1941C142.693 11.8523 142.363 12.4535 141.858 12.8865C141.353 13.3195 140.709 13.555 140.044 13.5491H138.681L138.187 15.9241L136.27 15.925ZM138.957 12.176H139.845C140.113 12.1554 140.368 12.049 140.571 11.8723C140.774 11.6956 140.914 11.458 140.972 11.1951C141.012 11.086 141.025 10.969 141.01 10.8538C140.996 10.7385 140.954 10.6283 140.888 10.5325C140.823 10.4366 140.735 10.3582 140.633 10.303C140.531 10.2478 140.417 10.2174 140.301 10.2151H139.353L138.957 12.176Z" fill="#3CA9C7"/>
<path d="M59.5287 0.188232H94.5016C94.9523 0.197422 95.381 0.385026 95.6932 0.710205C96.0055 1.03538 96.1757 1.4714 96.1666 1.92212V23.5964C96.1757 24.0472 96.0055 24.4827 95.6932 24.8079C95.381 25.133 94.9523 25.3211 94.5016 25.3303H59.5287C59.0779 25.3211 58.6493 25.133 58.337 24.8079C58.0248 24.4827 57.8545 24.0472 57.8636 23.5964V1.92212C57.8545 1.4714 58.0248 1.03538 58.337 0.710205C58.6493 0.385026 59.0779 0.197422 59.5287 0.188232Z" fill="#5870BE"/>
<path d="M74.6187 12.755C74.619 10.9792 75.146 9.2435 76.1328 7.7672C77.1196 6.2909 78.522 5.14037 80.1627 4.46105C81.8034 3.78173 83.6086 3.60419 85.3502 3.95079C87.0918 4.2974 88.6916 5.1526 89.9471 6.40831C91.2027 7.66403 92.0578 9.26385 92.4042 11.0055C92.7506 12.7471 92.5727 14.5524 91.8932 16.193C91.2137 17.8336 90.0631 19.2356 88.5867 20.2223C87.1103 21.2089 85.3744 21.7358 83.5986 21.736C82.4193 21.736 81.2514 21.5037 80.1619 21.0524C79.0723 20.601 78.0823 19.9396 77.2484 19.1056C76.4145 18.2716 75.7531 17.2816 75.3019 16.192C74.8507 15.1024 74.6185 13.9343 74.6187 12.755Z" fill="#FFAF38"/>
<path d="M69.8396 21.7341C68.3085 21.7339 66.8029 21.3423 65.4658 20.5964C64.1287 19.8505 63.0045 18.7751 62.2 17.4724C61.3956 16.1697 60.9376 14.6831 60.8695 13.1535C60.8014 11.6239 61.1256 10.1021 61.8111 8.73311C62.4967 7.36409 63.5209 6.19347 64.7865 5.33174C66.052 4.47001 67.5168 3.94595 69.0418 3.80977C70.5669 3.67358 72.1014 3.92956 73.4996 4.55342C74.8978 5.17728 76.1133 6.14833 77.0306 7.37422H75.8307V7.97432H77.4436C77.5646 8.16532 77.6786 8.36318 77.7846 8.56318H75.2306V9.16328H78.0736C78.1616 9.36328 78.2406 9.56338 78.3106 9.76338H74.6306V10.363H78.4986C78.9848 12.137 78.9178 14.0173 78.3066 15.7521H74.6306V16.3522H78.0695C77.9795 16.5592 77.8826 16.7521 77.7846 16.9431H75.2306V17.5432H77.4366C77.3036 17.7532 77.1647 17.9543 77.0237 18.1433H75.8307V18.7434H76.5306C75.6878 19.6837 74.6565 20.436 73.5036 20.9514C72.3508 21.4667 71.1023 21.7332 69.8396 21.7341Z" fill="#E63737"/>
<path d="M59.9885 14.407L60.5352 10.1471L61.3837 10.256L62.005 13.4016C62.0619 13.6945 62.1027 13.9134 62.1274 14.0583C62.1958 13.9095 62.3005 13.6916 62.4417 13.4045L63.8421 10.5714L64.6005 10.6688L64.0538 14.9288L63.5104 14.859L63.968 11.2935L62.2725 14.7002L61.764 14.6349L60.9973 10.8503L60.5319 14.4768L59.9885 14.407ZM66.9591 14.9147C66.7442 15.0545 66.5424 15.1467 66.3535 15.1914C66.1666 15.2363 65.9705 15.2456 65.7651 15.2193C65.4261 15.1758 65.1761 15.06 65.0151 14.872C64.8544 14.682 64.7906 14.4582 64.8237 14.2005C64.843 14.0494 64.8946 13.9162 64.9783 13.8009C65.0642 13.684 65.1672 13.5948 65.2873 13.5334C65.4094 13.4723 65.5426 13.4313 65.6871 13.4104C65.7933 13.3965 65.9516 13.3902 66.1621 13.3917C66.5909 13.3955 66.9095 13.3753 67.118 13.3312C67.1291 13.2598 67.136 13.2144 67.1384 13.195C67.1658 12.9819 67.1357 12.8254 67.048 12.7256C66.9295 12.5902 66.7386 12.5057 66.4751 12.4719C66.2291 12.4403 66.0414 12.4605 65.912 12.5325C65.7848 12.6028 65.6791 12.7439 65.5948 12.9555L65.0924 12.8202C65.1669 12.6072 65.2661 12.4408 65.3898 12.3208C65.5137 12.1988 65.6811 12.115 65.8917 12.0691C66.1026 12.0214 66.3408 12.0145 66.6062 12.0486C66.8697 12.0824 67.0798 12.1409 67.2365 12.224C67.3932 12.3071 67.5042 12.4011 67.5695 12.506C67.6351 12.6089 67.6741 12.734 67.6867 12.8814C67.6927 12.9727 67.6808 13.1346 67.651 13.3671L67.5615 14.0645C67.4991 14.5508 67.4702 14.8601 67.4749 14.9927C67.4817 15.1235 67.5105 15.2522 67.5612 15.3789L67.0149 15.3088C66.9745 15.1933 66.956 15.062 66.9591 14.9147ZM67.0654 13.7409C66.8656 13.7941 66.5724 13.8234 66.1857 13.8289C65.9667 13.8323 65.8102 13.8476 65.7161 13.8749C65.622 13.9023 65.5459 13.9506 65.4878 14.0199C65.4299 14.0873 65.3951 14.1665 65.3834 14.2576C65.3655 14.3971 65.4029 14.52 65.4956 14.6264C65.5902 14.7331 65.7392 14.7995 65.9426 14.8256C66.1441 14.8514 66.3289 14.8308 66.497 14.7638C66.6654 14.6948 66.7962 14.5885 66.8894 14.445C66.9608 14.334 67.0112 14.1632 67.0408 13.9327L67.0654 13.7409ZM68.1182 14.514L68.6458 14.499C68.6483 14.7101 68.7083 14.8792 68.8259 15.0066C68.9454 15.1341 69.1243 15.2132 69.3625 15.2438C69.6028 15.2746 69.7872 15.2491 69.9159 15.1671C70.0448 15.0832 70.1177 14.9754 70.1346 14.8437C70.1498 14.7255 70.1104 14.6259 70.0164 14.545C69.9507 14.4893 69.78 14.4073 69.5045 14.2991C69.1333 14.153 68.8776 14.0355 68.7374 13.9466C68.5994 13.8561 68.4996 13.7438 68.438 13.6099C68.3786 13.4743 68.3586 13.3309 68.378 13.1798C68.3956 13.0423 68.4429 12.9193 68.5198 12.8111C68.5989 12.7011 68.6977 12.6143 68.8161 12.5508C68.9052 12.5012 69.0221 12.465 69.1668 12.4422C69.3137 12.4177 69.4675 12.4158 69.6283 12.4364C69.8705 12.4675 70.0781 12.5296 70.2513 12.6227C70.4263 12.7161 70.5498 12.8284 70.6215 12.9597C70.6935 13.089 70.7332 13.2556 70.7405 13.4594L70.2202 13.4635C70.2173 13.3016 70.1654 13.169 70.0645 13.0654C69.9655 12.9621 69.8143 12.8974 69.6109 12.8713C69.3707 12.8405 69.1941 12.8582 69.0813 12.9245C68.9684 12.9907 68.9051 13.0771 68.8914 13.1837C68.8827 13.2515 68.8962 13.3152 68.9319 13.3749C68.9673 13.4366 69.0282 13.4917 69.1145 13.5402C69.1643 13.5662 69.3126 13.6306 69.5594 13.7331C69.9167 13.8794 70.1639 13.9938 70.301 14.0764C70.4403 14.1573 70.5439 14.2631 70.6117 14.3939C70.6796 14.5247 70.7021 14.6792 70.6793 14.8575C70.6569 15.0318 70.5844 15.1899 70.4619 15.3317C70.3415 15.4718 70.1799 15.5722 69.9772 15.6328C69.7747 15.6915 69.5524 15.7053 69.3103 15.6742C68.9092 15.6228 68.6139 15.5002 68.4241 15.3065C68.2362 15.113 68.1343 14.8489 68.1182 14.514ZM72.3868 15.5226L72.4031 15.9943C72.2519 16.0064 72.1181 16.005 72.0019 15.9901C71.8121 15.9658 71.6687 15.9168 71.5718 15.8434C71.4749 15.7699 71.4113 15.682 71.3811 15.5796C71.3512 15.4754 71.3564 15.2663 71.3966 14.9525L71.6245 13.177L71.2409 13.1278L71.2931 12.721L71.6767 12.7702L71.7748 12.006L72.3352 11.7589L72.1968 12.8369L72.7228 12.9044L72.6706 13.3113L72.1446 13.2438L71.9131 15.0483C71.8939 15.1975 71.8903 15.2945 71.9023 15.3393C71.9162 15.3844 71.9419 15.4222 71.9793 15.4526C72.0187 15.4833 72.0771 15.5036 72.1546 15.5135C72.2127 15.521 72.2901 15.524 72.3868 15.5226ZM75.0812 15.3338L75.6131 15.47C75.4873 15.7748 75.298 15.9996 75.0451 16.1444C74.7922 16.2891 74.4866 16.3385 74.1282 16.2925C73.6768 16.2346 73.3362 16.0501 73.1063 15.739C72.8787 15.4262 72.797 15.019 72.8614 14.5172C72.928 13.9981 73.1134 13.6123 73.4176 13.3599C73.7217 13.1075 74.0869 13.0086 74.513 13.0633C74.9257 13.1163 75.2447 13.3 75.4702 13.6144C75.6957 13.9289 75.7757 14.3409 75.7103 14.8504C75.7064 14.8814 75.6994 14.9277 75.6895 14.9895L73.3881 14.6941C73.364 15.0356 73.4265 15.3075 73.5758 15.5098C73.7251 15.7121 73.9286 15.8298 74.1863 15.8628C74.378 15.8874 74.5482 15.8581 74.6967 15.7748C74.8453 15.6914 74.9734 15.5444 75.0812 15.3338ZM73.4724 14.2678L75.1955 14.4889C75.2056 14.2263 75.1647 14.0232 75.0729 13.8795C74.9321 13.6566 74.7291 13.5282 74.4637 13.4941C74.2234 13.4633 74.0107 13.5177 73.8254 13.6574C73.642 13.7973 73.5243 14.0007 73.4724 14.2678ZM76.148 16.4808L76.544 13.3948L77.0148 13.4552L76.9547 13.9231C77.1029 13.7196 77.2319 13.5894 77.3415 13.5326C77.4532 13.4761 77.57 13.4556 77.6921 13.4713C77.8683 13.4939 78.0403 13.5731 78.208 13.7088L77.9656 14.171C77.8474 14.079 77.7244 14.0248 77.5965 14.0084C77.4822 13.9937 77.3751 14.0154 77.2751 14.0735C77.1753 14.1296 77.0983 14.2162 77.0439 14.3333C76.9619 14.5118 76.9067 14.7115 76.8784 14.9323L76.671 16.548L76.148 16.4808ZM81.4336 15.641L81.9791 15.8557C81.8015 16.3035 81.543 16.6297 81.2037 16.8343C80.8665 17.0372 80.4761 17.1101 80.0325 17.0532C79.5734 16.9943 79.2114 16.8533 78.9466 16.6303C78.684 16.4056 78.4999 16.1063 78.3943 15.7324C78.2907 15.3587 78.2649 14.9685 78.3171 14.5617C78.3741 14.118 78.5079 13.7424 78.7187 13.4347C78.9317 13.1253 79.2051 12.9054 79.5389 12.7749C79.8748 12.6428 80.2307 12.6008 80.6066 12.649C81.0327 12.7037 81.3772 12.8582 81.64 13.1125C81.9027 13.3667 82.066 13.6978 82.1298 14.1058L81.558 14.1653C81.499 13.8427 81.3846 13.5986 81.2148 13.433C81.0451 13.2675 80.8178 13.1665 80.533 13.1299C80.2056 13.0879 79.9214 13.1312 79.6805 13.2598C79.4414 13.3886 79.2603 13.58 79.1371 13.8339C79.0142 14.086 78.9347 14.3524 78.8987 14.6333C78.8522 14.9956 78.8638 15.3191 78.9336 15.6037C79.0056 15.8866 79.1444 16.1092 79.3501 16.2715C79.5557 16.4338 79.7883 16.5316 80.0479 16.5649C80.3637 16.6054 80.6427 16.5487 80.885 16.3946C81.1272 16.2406 81.3101 15.9894 81.4336 15.641ZM84.4988 17.1656C84.284 17.3054 84.0821 17.3977 83.8933 17.4423C83.7063 17.4873 83.5102 17.4966 83.3049 17.4702C82.9658 17.4267 82.7158 17.3109 82.5549 17.1229C82.3942 16.9329 82.3303 16.7091 82.3634 16.4515C82.3828 16.3004 82.4343 16.1672 82.5181 16.0519C82.604 15.9349 82.707 15.8457 82.8271 15.7844C82.9491 15.7232 83.0824 15.6822 83.2268 15.6614C83.333 15.6474 83.4913 15.6412 83.7019 15.6426C84.1306 15.6464 84.4493 15.6263 84.6578 15.5821C84.6689 15.5107 84.6757 15.4653 84.6782 15.4459C84.7055 15.2328 84.6754 15.0764 84.5878 14.9765C84.4693 14.8412 84.2783 14.7566 84.0148 14.7228C83.7688 14.6912 83.5811 14.7114 83.4518 14.7835C83.3246 14.8538 83.2189 14.9948 83.1346 15.2065L82.6321 15.0711C82.7067 14.8582 82.8058 14.6917 82.9295 14.5717C83.0535 14.4498 83.2208 14.3659 83.4315 14.3201C83.6424 14.2723 83.8806 14.2655 84.146 14.2995C84.4094 14.3333 84.6195 14.3918 84.7762 14.4749C84.9329 14.5581 85.0439 14.652 85.1092 14.7569C85.1748 14.8598 85.2139 14.985 85.2265 15.1323C85.2325 15.2237 85.2206 15.3856 85.1907 15.618L85.1012 16.3154C85.0388 16.8017 85.0099 17.1111 85.0146 17.2436C85.0214 17.3745 85.0502 17.5032 85.1009 17.6298L84.5546 17.5597C84.5143 17.4443 84.4957 17.3129 84.4988 17.1656ZM84.6052 15.9919C84.4054 16.045 84.1122 16.0743 83.7255 16.0798C83.5065 16.0832 83.3499 16.0986 83.2558 16.1259C83.1618 16.1532 83.0857 16.2015 83.0275 16.2709C82.9697 16.3383 82.9349 16.4175 82.9232 16.5085C82.9053 16.648 82.9427 16.771 83.0354 16.8774C83.13 16.984 83.279 17.0504 83.4824 17.0765C83.6839 17.1024 83.8687 17.0818 84.0368 17.0147C84.2051 16.9458 84.3359 16.8395 84.4292 16.6959C84.5005 16.5849 84.551 16.4142 84.5806 16.1836L84.6052 15.9919ZM85.7431 17.7122L86.1391 14.6262L86.6099 14.6866L86.5499 15.1545C86.6981 14.951 86.827 14.8208 86.9367 14.764C87.0483 14.7074 87.1651 14.687 87.2872 14.7027C87.4635 14.7253 87.6355 14.8045 87.8031 14.9402L87.5607 15.4023C87.4425 15.3104 87.3195 15.2562 87.1917 15.2398C87.0774 15.2251 86.9702 15.2468 86.8702 15.3049C86.7705 15.361 86.6934 15.4476 86.639 15.5647C86.557 15.7432 86.5018 15.9429 86.4735 16.1637L86.2662 17.7794L85.7431 17.7122ZM89.7328 18.2242L89.7828 17.8349C89.5479 18.1158 89.2406 18.232 88.8609 18.1832C88.6148 18.1517 88.3969 18.0548 88.207 17.8926C88.019 17.7306 87.8835 17.5212 87.8002 17.2644C87.7192 17.0059 87.699 16.7187 87.7395 16.403C87.779 16.0949 87.8661 15.8226 88.0009 15.5858C88.1359 15.3472 88.3146 15.1742 88.5371 15.0669C88.7596 14.9596 88.9978 14.9222 89.2515 14.9547C89.4375 14.9786 89.5981 15.0396 89.7332 15.1377C89.8685 15.2338 89.9736 15.3507 90.0485 15.4883L90.2447 13.9598L90.7648 14.0265L90.2181 18.2865L89.7328 18.2242ZM88.2771 16.472C88.2263 16.8671 88.2717 17.1733 88.4132 17.3903C88.5547 17.6073 88.7388 17.7304 88.9654 17.7595C89.194 17.7888 89.3997 17.7207 89.5824 17.5551C89.7673 17.3878 89.8844 17.1124 89.9336 16.7288C89.9878 16.3065 89.9462 15.9861 89.8089 15.7676C89.6715 15.5492 89.4837 15.4246 89.2454 15.3941C89.0129 15.3642 88.806 15.4342 88.6248 15.6039C88.4454 15.7738 88.3295 16.0632 88.2771 16.472Z" fill="white"/>
<path d="M1.66172 0.385986H36.6438C36.867 0.390407 37.0872 0.439022 37.2917 0.528564C37.4963 0.618107 37.6812 0.746933 37.8359 0.907959C37.9906 1.06898 38.1122 1.25906 38.1935 1.46704C38.2748 1.67502 38.3142 1.8971 38.3097 2.12036V23.7961C38.3185 24.2469 38.148 24.6826 37.8356 25.0076C37.5231 25.3326 37.0945 25.5201 36.6438 25.5291H1.66172C1.211 25.5201 0.782255 25.3326 0.469829 25.0076C0.157403 24.6826 -0.0131316 24.2469 -0.00429216 23.7961V2.12036C-0.008802 1.8971 0.0307491 1.67502 0.112041 1.46704C0.193333 1.25906 0.314752 1.06898 0.469463 0.907959C0.624174 0.746933 0.809087 0.618107 1.01365 0.528564C1.21822 0.439022 1.43846 0.390407 1.66172 0.385986Z" fill="#353A40"/>
<path d="M22.6847 16.9503C22.4203 16.8159 22.2029 16.6042 22.0608 16.3439C21.8904 16.0252 21.8075 15.6674 21.8208 15.3063C21.8061 15.0601 21.8404 14.8135 21.9218 14.5807C22.0031 14.3479 22.13 14.1337 22.2948 13.9503C22.47 13.7834 22.6777 13.6542 22.9049 13.5709C23.1322 13.4877 23.3741 13.4517 23.6157 13.466C23.8592 13.4503 24.1033 13.4845 24.333 13.5665C24.5627 13.6486 24.7733 13.7767 24.9518 13.943C25.1151 14.123 25.2406 14.3338 25.3212 14.5631C25.4017 14.7924 25.4356 15.0354 25.4208 15.278C25.4356 15.6296 25.367 15.9798 25.2207 16.2999C25.0885 16.5605 24.8827 16.7765 24.6288 16.921C24.3314 17.0783 23.9979 17.155 23.6617 17.1432C23.3255 17.1553 22.991 17.0894 22.6847 16.9503ZM23.0907 14.5333C22.9618 14.7717 22.8943 15.0382 22.8943 15.3092C22.8943 15.5802 22.9618 15.8468 23.0907 16.0851C23.1587 16.1589 23.2413 16.2176 23.3333 16.2579C23.4252 16.2982 23.5244 16.3195 23.6248 16.3195C23.7251 16.3195 23.8243 16.2982 23.9163 16.2579C24.0082 16.2176 24.0907 16.1589 24.1587 16.0851C24.3103 15.8378 24.377 15.5476 24.3488 15.2589C24.3703 14.9984 24.2995 14.7387 24.1488 14.525C24.0827 14.4485 24.0001 14.3883 23.9072 14.3483C23.8144 14.3083 23.7138 14.2896 23.6128 14.2941C23.5133 14.2913 23.4145 14.3112 23.324 14.3527C23.2335 14.3941 23.1536 14.4562 23.0907 14.5333ZM13.1787 17.1071C13.0044 17.0899 12.8349 17.0404 12.6787 16.9611C12.5371 16.8838 12.4122 16.7794 12.3108 16.6539C12.207 16.5349 12.129 16.396 12.0818 16.2452C12.0204 16.0509 11.9868 15.8489 11.9818 15.6451V13.527H13.0527V15.695C13.0479 15.7774 13.0595 15.8602 13.0868 15.9381C13.1141 16.016 13.1566 16.0876 13.2118 16.1491C13.3331 16.2533 13.4877 16.3107 13.6477 16.3107C13.8077 16.3107 13.9624 16.2533 14.0837 16.1491C14.1389 16.087 14.1813 16.0146 14.2084 15.9362C14.2355 15.8577 14.2468 15.7749 14.2417 15.692V13.5241H15.3127V15.6422C15.3133 15.8464 15.2795 16.0493 15.2128 16.2423C15.1511 16.4259 15.0485 16.5929 14.9127 16.7311C14.793 16.8617 14.6459 16.9639 14.4818 17.0309C14.2406 17.1149 13.9861 17.155 13.7307 17.1491C13.5464 17.1454 13.3625 17.1311 13.1798 17.1061L13.1787 17.1071ZM28.3177 17.0831L27.0177 15.131V17.0831H26.0077V13.528H27.0077L28.3168 15.4943V13.528H29.3287V17.0831H28.3177ZM18.3397 17.0831L17.0398 15.131V17.0831H16.0298V13.528H17.0298L18.3378 15.4943V13.528H19.3497V17.0831H18.3397ZM20.1097 17.0739V13.525H21.1897V17.0739H20.1097ZM11.9048 12.0929C11.6733 11.853 11.5358 11.5381 11.5177 11.2052L12.5398 11.1403C12.5505 11.2789 12.5965 11.4122 12.6737 11.528C12.7294 11.5996 12.8016 11.6567 12.8842 11.6945C12.9667 11.7322 13.0571 11.7499 13.1477 11.7452C13.2757 11.7538 13.4024 11.7139 13.5028 11.6339C13.5404 11.6042 13.5708 11.5666 13.5919 11.5236C13.613 11.4806 13.6243 11.4333 13.6249 11.3854C13.6255 11.3375 13.6153 11.2902 13.5952 11.2467C13.5751 11.2032 13.5456 11.1646 13.5088 11.1339C13.3426 11.0262 13.1548 10.9558 12.9587 10.9279C12.5933 10.8667 12.248 10.7189 11.9518 10.4962C11.8541 10.4112 11.7765 10.3053 11.7246 10.1867C11.6727 10.068 11.6479 9.93961 11.6517 9.81019C11.6522 9.62648 11.7061 9.44677 11.8068 9.2931C11.9207 9.12168 12.0834 8.98847 12.2738 8.91029C12.5463 8.80593 12.8373 8.75846 13.1288 8.77113C13.4857 8.74732 13.8411 8.83607 14.1448 9.02503C14.2673 9.12197 14.3677 9.24414 14.4395 9.38294C14.5112 9.52175 14.5526 9.67418 14.5608 9.83021L13.5487 9.89124C13.5355 9.75836 13.4753 9.63447 13.3788 9.54212C13.2767 9.46419 13.1499 9.42562 13.0217 9.43324C12.9211 9.4259 12.8212 9.45467 12.7397 9.51429C12.7098 9.53824 12.6856 9.56851 12.6692 9.60316C12.6527 9.63781 12.6444 9.67564 12.6448 9.714C12.6456 9.74394 12.6531 9.77328 12.6667 9.79994C12.6804 9.82659 12.6999 9.85018 12.7238 9.86829C12.833 9.93783 12.9562 9.98212 13.0847 9.99818C13.4323 10.0625 13.771 10.1679 14.0938 10.3121C14.2757 10.3994 14.4293 10.5363 14.5367 10.7072C14.6296 10.8664 14.6774 11.0478 14.6748 11.2321C14.676 11.4559 14.6117 11.6752 14.4897 11.8629C14.3643 12.0567 14.1845 12.2091 13.9728 12.3009C13.7075 12.408 13.4227 12.4591 13.1367 12.4503C12.6951 12.4965 12.2529 12.3676 11.9048 12.0919V12.0929ZM28.3187 12.3829L27.0188 10.4303V12.3829H26.0088V8.82826H27.0088L28.3177 10.7951V8.82826H29.3297V12.3829H28.3187ZM24.4437 12.3829L23.8698 11.296C23.8236 11.193 23.7573 11.1002 23.6748 11.0231C23.5979 10.9681 23.5054 10.939 23.4108 10.9401H23.3158V12.3829H22.2367V8.82826H24.0258C24.2824 8.81818 24.539 8.84744 24.7867 8.91517C24.9607 8.972 25.1105 9.08555 25.2118 9.23792C25.323 9.409 25.3792 9.61017 25.3728 9.8141C25.3773 9.99226 25.3348 10.1687 25.2498 10.3253C25.1673 10.4677 25.0505 10.5867 24.9098 10.672C24.7923 10.7388 24.665 10.7868 24.5327 10.8141C24.6319 10.8434 24.7263 10.8871 24.8127 10.944C24.877 10.9996 24.9344 11.0627 24.9838 11.132C25.0408 11.2004 25.0914 11.2743 25.1348 11.3522L25.6548 12.3829H24.4437ZM23.3168 10.2672H23.7698C23.8658 10.2603 23.9608 10.2439 24.0537 10.2189C24.1234 10.2046 24.1854 10.1652 24.2278 10.108C24.2729 10.0485 24.2968 9.97566 24.2958 9.90101C24.2989 9.85165 24.2909 9.80234 24.2723 9.75648C24.2538 9.71062 24.2252 9.66924 24.1887 9.63587C24.069 9.56233 23.9284 9.53052 23.7887 9.54505H23.3168V10.2672ZM18.7168 12.3829V8.82826H21.5947V9.58704H19.7948V10.152H21.4668V10.8781H19.7948V11.5783H21.6498V12.3829H18.7168ZM16.0647 12.3829V9.70619H14.9697V8.82826H18.2347V9.70619H17.1348V12.3829H16.0647ZM8.19971 12.3829V8.82826H11.0778V9.58704H9.27771V10.152H10.9487V10.8781H9.26978V11.5783H11.1228V12.3829H8.19971ZM6.03271 12.3829L5.42371 10.1442L4.81677 12.3829H3.76379L2.99072 8.82826H4.01074L4.37781 10.818L4.91577 8.82826H5.93176L6.4707 10.816L6.83777 8.82826H7.85278L7.08679 12.3829H6.03271Z" fill="#ECD345"/>
<path d="M34.1199 17.1453V8.76538H35.3198V17.1453H34.1199ZM31.1299 17.1453V8.76538H32.3298V17.1453H31.1299Z" fill="#ECD345"/>
<defs>
<linearGradient id="paint0_linear_8_527" x1="193.265" y1="25.3303" x2="193.265" y2="0.188232" gradientUnits="userSpaceOnUse">
<stop stop-color="#E59703"/>
<stop offset="0.231" stop-color="#E59703"/>
<stop offset="0.234" stop-color="white"/>
<stop offset="0.761" stop-color="white"/>
<stop offset="0.766" stop-color="#5457BB"/>
<stop offset="1" stop-color="#5457BB"/>
</linearGradient>
</defs>
</svg>
