<svg width="76" height="59" viewBox="0 0 76 59" fill="none" xmlns="http://www.w3.org/2000/svg">
<rect x="0.52002" width="75" height="59" fill="white"/>
<path d="M35.7075 37C36.0182 37 36.27 36.7482 36.27 36.4375C36.27 36.1268 36.0182 35.875 35.7075 35.875C35.3969 35.875 35.145 36.1268 35.145 36.4375C35.145 36.7482 35.3969 37 35.7075 37Z" fill="#22262A" stroke="#22262A" stroke-width="2" stroke-miterlimit="10" stroke-linecap="round" stroke-linejoin="round"/>
<path d="M43.5825 37C43.8932 37 44.145 36.7482 44.145 36.4375C44.145 36.1268 43.8932 35.875 43.5825 35.875C43.2719 35.875 43.02 36.1268 43.02 36.4375C43.02 36.7482 43.2719 37 43.5825 37Z" fill="#22262A" stroke="#22262A" stroke-width="2" stroke-miterlimit="10" stroke-linecap="round" stroke-linejoin="round"/>
<path d="M29.52 19H31.77L34.02 32.5H45.27L47.52 22.375H32.895" stroke="#22262A" stroke-width="2" stroke-linecap="round" stroke-linejoin="round"/>
<circle cx="50.52" cy="16" r="11" fill="#FB7181" stroke="white" stroke-width="2"/>
<path d="M48.0536 18.63C48.2802 18.45 48.3836 18.3667 48.3636 18.38C49.0169 17.84 49.5302 17.3967 49.9036 17.05C50.2836 16.7033 50.6036 16.34 50.8636 15.96C51.1236 15.58 51.2536 15.21 51.2536 14.85C51.2536 14.5767 51.1902 14.3633 51.0636 14.21C50.9369 14.0567 50.7469 13.98 50.4936 13.98C50.2402 13.98 50.0402 14.0767 49.8936 14.27C49.7536 14.4567 49.6836 14.7233 49.6836 15.07H48.0336C48.0469 14.5033 48.1669 14.03 48.3936 13.65C48.6269 13.27 48.9302 12.99 49.3036 12.81C49.6836 12.63 50.1036 12.54 50.5636 12.54C51.3569 12.54 51.9536 12.7433 52.3536 13.15C52.7602 13.5567 52.9636 14.0867 52.9636 14.74C52.9636 15.4533 52.7202 16.1167 52.2336 16.73C51.7469 17.3367 51.1269 17.93 50.3736 18.51H53.0736V19.9H48.0536V18.63Z" fill="white"/>
</svg>
